HIERARCHY
ROOT Hips
{
	OFFSET 0.000000 100.481300 0.000000
	CHANNELS 6 Xposition Yposition Zposition Xrotation Yrotation Zrotation 
	JOINT Spine
	{
		OFFSET -0.279200 12.230698 -2.892100
		CHANNELS 3 Xrotation Yrotation Zrotation
		JOINT Spine1
		{
			OFFSET -0.232667 10.192268 -1.242267
			CHANNELS 3 Xrotation Yrotation Zrotation
			JOINT Spine1_split
			{
				OFFSET -0.232667 10.192268 -1.242267
				CHANNELS 3 Xrotation Yrotation Zrotation
				JOINT Spine2
				{
					OFFSET -0.232667 10.192268 -1.242267
					CHANNELS 3 Xrotation Yrotation Zrotation
					JOINT Neck
					{
						OFFSET -0.418800 17.814194 8.416900
						CHANNELS 3 Xrotation Yrotation Zrotation
						JOINT Head
						{
							OFFSET 0.000000 7.031097 3.806800
							CHANNELS 3 Xrotation Yrotation Zrotation
							JOINT HeadTop_End
							{
								OFFSET 0.000000 24.646606 12.978600
								CHANNELS 3 Xrotation Yrotation Zrotation
								End Site
								{
									OFFSET 0.000000 0.000000 0.000000
								}
							}
						}
					}
					JOINT LeftShoulder
					{
						OFFSET 8.476499 7.247704 -3.868750
						CHANNELS 3 Xrotation Yrotation Zrotation
						JOINT LeftShoulder_split
						{
							OFFSET 8.476499 7.247704 -3.868750
							CHANNELS 3 Xrotation Yrotation Zrotation
							JOINT LeftArm
							{
								OFFSET 9.308998 -2.777710 0.208600
								CHANNELS 3 Xrotation Yrotation Zrotation
								JOINT LeftForeArm
								{
									OFFSET 29.972298 0.000000 0.000000
									CHANNELS 3 Xrotation Yrotation Zrotation
									JOINT LeftHand
									{
										OFFSET 26.026505 0.000000 0.000000
										CHANNELS 3 Xrotation Yrotation Zrotation
										JOINT LeftHandThumb1
										{
											OFFSET 12.240501 -7.147949 9.207150
											CHANNELS 3 Xrotation Yrotation Zrotation
											JOINT LeftHandThumb2
											{
												OFFSET 4.138618 -2.389435 2.389433
												CHANNELS 3 Xrotation Yrotation Zrotation
												JOINT LeftHandThumb3
												{
													OFFSET 2.726913 -1.574387 1.574386
													CHANNELS 3 Xrotation Yrotation Zrotation
													JOINT LeftHandThumb4
													{
														OFFSET 3.941010 -2.275345 2.275342
														CHANNELS 3 Xrotation Yrotation Zrotation
														End Site
														{
															OFFSET 0.000000 0.000000 0.000000
														}
													}
												}
											}
										}
										JOINT LeftHandIndex1
										{
											OFFSET 24.424698 -1.985611 5.953459
											CHANNELS 3 Xrotation Yrotation Zrotation
											JOINT LeftHandIndex2
											{
												OFFSET 6.426697 0.000000 0.000000
												CHANNELS 3 Xrotation Yrotation Zrotation
												JOINT LeftHandIndex3
												{
													OFFSET 5.337898 0.000000 0.000000
													CHANNELS 3 Xrotation Yrotation Zrotation
													JOINT LeftHandIndex4
													{
														OFFSET 4.409401 0.000000 0.000000
														CHANNELS 3 Xrotation Yrotation Zrotation
														End Site
														{
															OFFSET 0.000000 0.000000 0.000000
														}
													}
												}
											}
										}
										JOINT LeftHandMiddle1
										{
											OFFSET 23.810104 0.000000 0.000000
											CHANNELS 3 Xrotation Yrotation Zrotation
											JOINT LeftHandMiddle2
											{
												OFFSET 7.176498 0.000000 0.000000
												CHANNELS 3 Xrotation Yrotation Zrotation
												JOINT LeftHandMiddle3
												{
													OFFSET 6.774902 0.000000 0.000000
													CHANNELS 3 Xrotation Yrotation Zrotation
													JOINT LeftHandMiddle4
													{
														OFFSET 5.403328 0.000000 0.000000
														CHANNELS 3 Xrotation Yrotation Zrotation
														End Site
														{
															OFFSET 0.000000 0.000000 0.000000
														}
													}
												}
											}
										}
										JOINT LeftHandRing1
										{
											OFFSET 22.908401 -0.839279 -6.020567
											CHANNELS 3 Xrotation Yrotation Zrotation
											JOINT LeftHandRing2
											{
												OFFSET 6.337502 0.000000 0.000000
												CHANNELS 3 Xrotation Yrotation Zrotation
												JOINT LeftHandRing3
												{
													OFFSET 5.779297 0.000000 0.000000
													CHANNELS 3 Xrotation Yrotation Zrotation
													JOINT LeftHandRing4
													{
														OFFSET 4.965698 0.000000 0.000000
														CHANNELS 3 Xrotation Yrotation Zrotation
														End Site
														{
															OFFSET 0.000000 0.000000 0.000000
														}
													}
												}
											}
										}
										JOINT LeftHandPinky1
										{
											OFFSET 20.037003 -1.530319 -10.950146
											CHANNELS 3 Xrotation Yrotation Zrotation
											JOINT LeftHandPinky2
											{
												OFFSET 5.254700 0.000000 0.000000
												CHANNELS 3 Xrotation Yrotation Zrotation
												JOINT LeftHandPinky3
												{
													OFFSET 4.810204 0.000000 0.000000
													CHANNELS 3 Xrotation Yrotation Zrotation
													JOINT LeftHandPinky4
													{
														OFFSET 3.647202 0.000000 0.000000
														CHANNELS 3 Xrotation Yrotation Zrotation
														End Site
														{
															OFFSET 0.000000 0.000000 0.000000
														}
													}
												}
											}
										}
									}
								}
							}
						}
					}
					JOINT RightShoulder
					{
						OFFSET -7.570500 7.247704 -3.868750
						CHANNELS 3 Xrotation Yrotation Zrotation
						JOINT RightShoulder_split
						{
							OFFSET -7.570500 7.247704 -3.868750
							CHANNELS 3 Xrotation Yrotation Zrotation
							JOINT RightArm
							{
								OFFSET -9.308998 -2.777710 0.208500
								CHANNELS 3 Xrotation Yrotation Zrotation
								JOINT RightForeArm
								{
									OFFSET -29.972300 0.000000 0.000000
									CHANNELS 3 Xrotation Yrotation Zrotation
									JOINT RightHand
									{
										OFFSET -26.026505 0.000000 0.000000
										CHANNELS 3 Xrotation Yrotation Zrotation
										JOINT RightHandThumb1
										{
											OFFSET -12.240601 -7.148026 9.207092
											CHANNELS 3 Xrotation Yrotation Zrotation
											JOINT RightHandThumb2
											{
												OFFSET -4.138618 -2.389435 2.389433
												CHANNELS 3 Xrotation Yrotation Zrotation
												JOINT RightHandThumb3
												{
													OFFSET -2.726974 -1.574417 1.574421
													CHANNELS 3 Xrotation Yrotation Zrotation
													JOINT RightHandThumb4
													{
														OFFSET -3.941010 -2.275345 2.275343
														CHANNELS 3 Xrotation Yrotation Zrotation
														End Site
														{
															OFFSET 0.000000 0.000000 0.000000
														}
													}
												}
											}
										}
										JOINT RightHandIndex1
										{
											OFFSET -24.424698 -1.985657 5.953444
											CHANNELS 3 Xrotation Yrotation Zrotation
											JOINT RightHandIndex2
											{
												OFFSET -6.426697 0.000000 0.000000
												CHANNELS 3 Xrotation Yrotation Zrotation
												JOINT RightHandIndex3
												{
													OFFSET -5.337898 0.000000 0.000000
													CHANNELS 3 Xrotation Yrotation Zrotation
													JOINT RightHandIndex4
													{
														OFFSET -4.409401 0.000000 0.000000
														CHANNELS 3 Xrotation Yrotation Zrotation
														End Site
														{
															OFFSET 0.000000 0.000000 0.000000
														}
													}
												}
											}
										}
										JOINT RightHandMiddle1
										{
											OFFSET -23.810097 0.000000 0.000000
											CHANNELS 3 Xrotation Yrotation Zrotation
											JOINT RightHandMiddle2
											{
												OFFSET -7.176498 0.000000 0.000000
												CHANNELS 3 Xrotation Yrotation Zrotation
												JOINT RightHandMiddle3
												{
													OFFSET -6.774902 0.000000 0.000000
													CHANNELS 3 Xrotation Yrotation Zrotation
													JOINT RightHandMiddle4
													{
														OFFSET -5.403328 0.000000 0.000000
														CHANNELS 3 Xrotation Yrotation Zrotation
														End Site
														{
															OFFSET 0.000000 0.000000 0.000000
														}
													}
												}
											}
										}
										JOINT RightHandRing1
										{
											OFFSET -22.908302 -0.839325 -6.020576
											CHANNELS 3 Xrotation Yrotation Zrotation
											JOINT RightHandRing2
											{
												OFFSET -6.337502 0.000000 0.000000
												CHANNELS 3 Xrotation Yrotation Zrotation
												JOINT RightHandRing3
												{
													OFFSET -5.779297 0.000000 0.000000
													CHANNELS 3 Xrotation Yrotation Zrotation
													JOINT RightHandRing4
													{
														OFFSET -4.965698 0.000000 0.000000
														CHANNELS 3 Xrotation Yrotation Zrotation
														End Site
														{
															OFFSET 0.000000 0.000000 0.000000
														}
													}
												}
											}
										}
										JOINT RightHandPinky1
										{
											OFFSET -20.037003 -1.530334 -10.950259
											CHANNELS 3 Xrotation Yrotation Zrotation
											JOINT RightHandPinky2
											{
												OFFSET -5.254700 0.000000 0.000000
												CHANNELS 3 Xrotation Yrotation Zrotation
												JOINT RightHandPinky3
												{
													OFFSET -4.810204 0.000000 0.000000
													CHANNELS 3 Xrotation Yrotation Zrotation
													JOINT RightHandPinky4
													{
														OFFSET -3.647202 0.000000 0.000000
														CHANNELS 3 Xrotation Yrotation Zrotation
														End Site
														{
															OFFSET 0.000000 0.000000 0.000000
														}
													}
												}
											}
										}
									}
								}
							}
						}
					}
				}
			}
		}
	}
	JOINT LeftUpLeg
	{
		OFFSET 15.427100 -6.655098 0.678600
		CHANNELS 3 Xrotation Yrotation Zrotation
		JOINT LeftLeg
		{
			OFFSET 4.081073 -39.591068 13.024000
			CHANNELS 3 Xrotation Yrotation Zrotation
			JOINT LeftFoot
			{
				OFFSET -4.081074 -37.707932 -15.979700
				CHANNELS 3 Xrotation Yrotation Zrotation
				JOINT LeftToeBase
				{
					OFFSET 5.346399 -15.068900 20.645000
					CHANNELS 3 Xrotation Yrotation Zrotation
					JOINT LeftToe_End
					{
						OFFSET 2.754700 0.931300 11.300900
						CHANNELS 3 Xrotation Yrotation Zrotation
						End Site
						{
							OFFSET 0.000000 0.000000 0.000000
						}
					}
				}
			}
		}
	}
	JOINT RightUpLeg
	{
		OFFSET -15.569500 -6.655098 0.678600
		CHANNELS 3 Xrotation Yrotation Zrotation
		JOINT RightLeg
		{
			OFFSET -4.081825 -39.591045 13.023800
			CHANNELS 3 Xrotation Yrotation Zrotation
			JOINT RightFoot
			{
				OFFSET 4.081824 -37.707954 -15.979600
				CHANNELS 3 Xrotation Yrotation Zrotation
				JOINT RightToeBase
				{
					OFFSET -5.346400 -15.068900 20.645000
					CHANNELS 3 Xrotation Yrotation Zrotation
					JOINT RightToe_End
					{
						OFFSET -2.754700 0.931300 11.300900
						CHANNELS 3 Xrotation Yrotation Zrotation
						End Site
						{
							OFFSET 0.000000 0.000000 0.000000
						}
					}
				}
			}
		}
	}
}
MOTION
Frames: 4
Frame Time: 0.016667
9.920264 190.655899 73.821861 6.079922 18.492095 -1.878282 7.375839 -1.553710 -2.531403 14.411475 -2.597690 1.282294 0.000000 0.000000 0.000000 14.393225 -2.607809 1.534274 -3.431903 0.659721 -7.971157 -4.476602 -10.464169 13.497316 -0.000003 -0.000000 0.000000 -1.645776 11.892276 6.117613 0.000000 0.000000 0.000000 -105.464425 -55.286649 -116.659085 -0.002762 -92.898988 -0.002717 -8.263626 -7.356836 2.186942 -3.500393 23.141900 9.972917 -2.408861 12.775512 10.381910 -3.572563 4.191486 6.966322 -0.000001 0.000001 0.000002 0.080928 1.054726 -8.775062 0.139288 1.380631 -11.520112 0.034873 0.693825 -5.759219 0.000001 0.000001 -0.000001 0.080634 1.052821 -8.759059 0.139669 1.382522 -11.536114 0.034885 0.693821 -5.759220 -0.000002 0.000001 -0.000000 0.080928 1.054726 -8.775063 0.139287 1.380630 -11.520113 0.034888 0.693821 -5.759216 0.000000 -0.000001 0.000001 0.683451 5.064144 -8.296816 0.133631 -2.674904 -12.020605 0.034874 0.693824 -5.759217 -0.000002 0.000001 -0.000000 2.075055 14.947589 1.840486 0.000000 0.000000 0.000000 -36.947307 40.337567 63.095054 -0.000032 48.043827 0.000045 31.938934 2.596823 0.748835 -7.605207 -2.521695 -16.077630 4.602801 -15.232220 -8.617241 -1.023796 -3.032491 -6.344381 -0.000001 0.000001 0.000000 0.672577 -2.988278 25.363202 0.151859 -1.448123 11.972219 0.038044 -0.728013 5.985141 -0.000000 -0.000000 0.000000 0.672578 -2.988278 25.363201 0.151859 -1.448129 11.972219 0.038046 -0.728017 5.985147 -0.000000 -0.000001 -0.000001 0.672570 -2.988271 25.363197 0.151859 -1.448135 11.972224 0.038043 -0.728013 5.985142 0.000000 0.000000 0.000000 0.672577 -2.988278 25.363201 0.151859 -1.448130 11.972217 0.038043 -0.728012 5.985142 0.000002 -0.000001 -0.000000 -31.396218 20.580205 11.129239 54.148080 -4.469531 -0.995318 6.133042 -0.616375 -13.684666 -0.000010 0.000005 -0.000010 -0.000001 0.000002 0.000002 -55.583755 3.903488 -17.581525 26.603457 8.111579 0.457234 16.304724 18.766834 25.280755 -0.000001 0.000004 0.000000 0.000000 0.000001 0.000000 
10.115944 187.739456 76.625702 5.018307 18.294235 -1.353473 7.410662 -1.412743 -2.591542 14.383887 -2.380558 1.213552 0.000000 0.000000 0.000000 14.364187 -2.405679 1.448309 -3.302233 0.547481 -7.776376 -3.709833 -10.667866 13.127594 -0.000002 0.000000 0.000000 -1.522763 11.317940 5.579480 0.000000 0.000000 0.000000 -102.529390 -55.782985 -113.588792 -0.005760 -91.991829 -0.005766 -9.879185 -6.284514 1.313718 -3.500351 23.141767 9.972870 -2.408838 12.775473 10.381832 -3.572534 4.191472 6.966310 0.000001 0.000001 0.000001 0.080924 1.054716 -8.774993 0.139265 1.380627 -11.520029 0.034884 0.693818 -5.759182 -0.000002 0.000001 -0.000002 0.080629 1.052807 -8.758999 0.139658 1.382518 -11.536038 0.034900 0.693815 -5.759178 0.000003 -0.000000 0.000000 0.080924 1.054716 -8.774994 0.139268 1.380627 -11.520029 0.034883 0.693816 -5.759180 0.000004 -0.000000 -0.000001 0.683426 5.064139 -8.296737 0.133630 -2.674912 -12.020526 0.034893 0.693816 -5.759178 -0.000002 0.000000 -0.000000 2.084699 14.908501 1.923964 0.000000 0.000000 0.000000 -37.666123 40.172598 63.297747 0.000004 48.302688 -0.000024 32.519415 2.624570 1.993026 -7.604265 -2.522127 -16.076187 4.602800 -15.232181 -8.617174 -1.023792 -3.032469 -6.344361 -0.000001 0.000000 0.000002 0.672566 -2.988254 25.363020 0.151845 -1.448099 11.972128 0.038072 -0.728031 5.985108 0.000001 0.000001 0.000000 0.672567 -2.988254 25.363018 0.151847 -1.448101 11.972127 0.038070 -0.728026 5.985107 -0.000002 0.000000 -0.000000 0.672568 -2.988253 25.363021 0.151843 -1.448099 11.972130 0.038071 -0.728029 5.985107 -0.000002 -0.000000 0.000000 0.672566 -2.988254 25.363018 0.151847 -1.448103 11.972127 0.038073 -0.728030 5.985107 -0.000001 0.000000 0.000000 -30.660429 20.533094 10.896366 53.044082 -3.745202 -0.963219 7.434540 -0.939665 -13.754093 -0.000004 0.000004 -0.000003 -0.000001 -0.000000 0.000001 -53.460348 3.319326 -17.656696 26.583318 7.837648 0.562806 17.379539 19.636562 24.270205 0.000001 0.000000 -0.000001 0.000000 0.000002 0.000000 
10.333437 184.553329 79.427574 3.932623 17.980056 -0.832747 7.433049 -1.267801 -2.642736 14.331759 -2.196022 1.072490 0.000000 0.000000 0.000000 14.312122 -2.231721 1.291072 -3.139352 0.436494 -7.492980 -2.915441 -10.754767 12.844840 0.000002 -0.000000 0.000000 -1.447301 10.959920 5.211208 0.000000 0.000000 0.000000 -99.827695 -56.207218 -110.766701 -0.007523 -90.695814 -0.007487 -11.177062 -5.296989 0.456585 -3.500309 23.141567 9.972817 -2.408754 12.775449 10.381748 -3.572510 4.191454 6.966253 0.000001 0.000001 0.000003 0.080918 1.054703 -8.774905 0.139280 1.380610 -11.519922 0.034875 0.693812 -5.759122 0.000002 0.000000 -0.000001 0.080636 1.052796 -8.758907 0.139655 1.382502 -11.535910 0.034885 0.693810 -5.759118 -0.000002 0.000000 -0.000001 0.080918 1.054703 -8.774904 0.139283 1.380615 -11.519920 0.034878 0.693809 -5.759121 0.000000 0.000000 0.000001 0.683429 5.064129 -8.296652 0.133617 -2.674928 -12.020404 0.034884 0.693809 -5.759119 -0.000002 -0.000000 -0.000000 2.080138 14.739084 2.062842 0.000000 0.000000 0.000000 -38.227817 39.650973 63.883675 0.000007 49.554395 -0.000016 33.231787 2.131673 3.145249 -7.602983 -2.522651 -16.074150 4.602785 -15.232097 -8.617079 -1.023799 -3.032437 -6.344311 -0.000000 -0.000000 -0.000001 0.672558 -2.988225 25.362763 0.151850 -1.448079 11.971982 0.038059 -0.728018 5.985060 0.000000 0.000000 -0.000001 0.672559 -2.988225 25.362760 0.151849 -1.448082 11.971984 0.038062 -0.728013 5.985061 -0.000001 0.000002 0.000001 0.672553 -2.988225 25.362762 0.151852 -1.448088 11.971982 0.038062 -0.728017 5.985059 0.000002 0.000002 -0.000001 0.672558 -2.988225 25.362760 0.151846 -1.448085 11.971982 0.038059 -0.728017 5.985062 0.000001 0.000002 -0.000000 -29.737131 20.422877 10.597648 51.687805 -3.456877 -0.915204 8.479529 -1.209575 -14.123227 0.000004 0.000006 0.000012 -0.000002 0.000001 -0.000001 -51.257455 2.586978 -17.605241 26.616521 7.606638 0.638241 18.420634 19.993530 23.033551 0.000002 -0.000004 -0.000002 0.000001 -0.000002 0.000000 
10.564885 181.123154 82.228607 2.861798 17.593968 -0.344730 7.436560 -1.121129 -2.672541 14.253384 -2.029490 0.889715 0.000000 0.000000 0.000000 14.234367 -2.070370 1.095187 -2.973546 0.335320 -7.170161 -2.167503 -10.752430 12.661433 0.000000 0.000000 0.000000 -1.416795 10.842150 5.015826 0.000000 0.000000 0.000000 -97.509249 -56.558484 -108.357891 0.040131 -89.118068 0.040326 -12.155363 -4.424780 -0.433191 -3.500258 23.141374 9.972761 -2.408703 12.775403 10.381637 -3.572490 4.191427 6.966192 0.000001 0.000000 0.000001 0.080926 1.054696 -8.774819 0.139271 1.380595 -11.519794 0.034880 0.693803 -5.759068 0.000001 -0.000000 -0.000000 0.080622 1.052796 -8.758816 0.139664 1.382481 -11.535790 0.034881 0.693803 -5.759058 -0.000001 0.000000 -0.000001 0.080926 1.054696 -8.774815 0.139272 1.380596 -11.519794 0.034901 0.693801 -5.759061 0.000002 -0.000000 0.000001 0.683425 5.064120 -8.296561 0.133615 -2.674940 -12.020283 0.034897 0.693803 -5.759061 0.000003 0.000000 -0.000001 2.065491 14.495183 2.197903 0.000000 0.000000 0.000000 -38.516403 38.803947 64.754954 0.000006 51.747091 -0.000012 34.057598 1.236727 4.088634 -7.601761 -2.522979 -16.072128 4.602800 -15.232037 -8.617003 -1.023811 -3.032429 -6.344272 -0.000002 -0.000001 0.000002 0.672539 -2.988198 25.362504 0.151846 -1.448090 11.971880 0.038061 -0.728011 5.984986 -0.000000 -0.000002 0.000001 0.672540 -2.988198 25.362502 0.151847 -1.448092 11.971880 0.038063 -0.728011 5.984986 0.000002 0.000002 -0.000001 0.672541 -2.988197 25.362502 0.151846 -1.448094 11.971882 0.038063 -0.728009 5.984986 -0.000000 0.000001 0.000000 0.672539 -2.988198 25.362502 0.151845 -1.448095 11.971879 0.038060 -0.728007 5.984984 -0.000001 0.000000 -0.000000 -28.689742 20.253601 10.233924 50.053720 -3.457308 -0.856149 9.323043 -1.437211 -14.722249 -0.000002 0.000005 0.000008 0.000002 0.000003 -0.000000 -48.965821 1.718192 -17.462804 26.660520 7.406742 0.684994 19.400795 19.846225 21.682605 -0.000000 0.000001 -0.000003 -0.000000 0.000001 -0.000001 
